<svg xmlns="http://www.w3.org/2000/svg" width="24" height="24" fill-rule="evenodd" clip-rule="evenodd" style=""><rect id="backgroundrect" width="100%" height="100%" x="0" y="0" fill="none" stroke="none"/><g class="currentLayer" style=""><title>Layer 1</title><path d="M9.658464745430194,0.7874015569686891 c0.6366841840744021,7.189 -5.87106317281723,9.664 -5.87106317281723,15.996 c0,4.301 3.203252067089081,7.9719999999999995 9.393701076507568,8.004 c6.190449009418487,0.032000000000000015 9.393701076507568,-4.414 9.393701076507568,-8.956 c0,-4.141 -2.1522012910842894,-8.046 -6.212367645263672,-10.474 c0.9644199771881103,2.607 -0.3193858366012574,4.9879999999999995 -1.566660590648651,5.808 c0.07306211948394777,-3.337 -1.174212634563446,-8.289 -5.137310744285583,-10.378 zm4.917080641269684,13 c3.919260838031769,3.989 1.5123858733177187,9 -1.6355477318763734,9 c-1.9152712750434875,0 -2.9005661435127257,-1.2650000000000001 -2.890128697872162,-2.577 c0.01983114671707154,-2.433 2.8567288718223574,-2.435 4.525676429748535,-6.423 z" id="svg_1" class="selected" fill="#ffffff" fill-opacity="1"/></g></svg>